<?xml version='1.0' encoding='utf-8'?>
<svg xmlns="http://www.w3.org/2000/svg" version="1.0" width="763.000000pt" height="715.000000pt" viewBox="0 0 763.000000 715.000000" preserveAspectRatio="xMidYMid meet">

<g transform="translate(0.000000,715.000000) scale(0.100000,-0.100000)" fill="#000000" stroke="none">
<path d="M3420 6865 c-244 -29 -448 -72 -661 -141 -123 -39 -292 -104 -349 -134 -19 -10 -71 -35 -115 -55 -100 -45 -334 -184 -440 -261 -304 -218 -584 -497 -792 -789 -204 -287 -381 -646 -477 -971 -109 -368 -158 -777 -136 -1136 10 -169 41 -418 60 -488 6 -19 10 -60 10 -90 0 -30 3 -73 7 -95 6 -36 7 -38 14 -15 4 17 8 20 11 10 3 -8 31 -94 62 -190 95 -292 206 -524 371 -777 l80 -123 27 18 c57 37 516 403 521 415 3 7 -22 56 -55 108 -181 287 -227 423 -178 524 19 39 66 93 73 84 2 -2 17 -35 34 -74 61 -140 129 -150 313 -44 150 85 200 140 235 253 14 45 25 87 25 93 0 11 -31 11 -152 -1 -21 -2 -38 0 -38 5 0 31 141 874 147 879 11 10 165 50 190 50 12 0 72 -34 133 -75 85 -57 120 -75 146 -75 38 0 145 53 400 198 140 80 168 100 223 161 256 289 653 382 1005 237 118 -48 187 -96 311 -217 107 -104 116 -110 349 -240 303 -169 292 -168 445 -61 65 45 114 72 130 72 44 -1 183 -44 192 -60 9 -15 139 -819 139 -856 0 -18 -6 -19 -82 -14 -48 3 -86 2 -90 -4 -9 -13 2 -72 24 -134 28 -75 101 -144 228 -217 97 -56 109 -60 167 -60 54 0 66 3 89 27 15 15 39 55 54 90 15 35 33 63 39 63 7 0 27 -20 45 -43 29 -41 31 -50 31 -126 0 -81 -1 -85 -62 -207 -76 -151 -124 -240 -139 -254 -23 -21 -55 -75 -45 -75 6 0 11 -6 11 -13 0 -15 501 -430 525 -435 8 -2 19 7 25 20 5 13 43 74 84 137 77 118 206 349 206 369 0 7 7 12 16 12 10 0 14 6 11 14 -3 8 14 62 39 122 24 59 64 168 88 243 24 75 52 159 61 186 9 28 20 73 24 100 5 28 17 104 29 170 39 226 46 315 46 585 0 275 -11 401 -55 625 -154 786 -570 1469 -1205 1981 -115 93 -381 265 -520 337 -73 37 -138 67 -145 67 -7 0 -20 6 -28 14 -43 37 -364 150 -571 201 -262 64 -642 112 -674 85 -14 -11 -16 -56 -16 -340 0 -367 -1 -360 73 -360 59 0 253 -29 377 -56 269 -60 531 -165 783 -314 47 -27 95 -50 106 -50 15 0 21 -6 21 -21 0 -38 99 -334 126 -375 25 -39 108 -101 184 -139 41 -21 50 -26 109 -63 264 -164 423 -331 500 -523 16 -41 28 -75 27 -76 -2 -2 -18 3 -37 11 -68 27 -81 29 -77 11 2 -9 30 -28 68 -43 l65 -27 17 -80 c24 -118 23 -287 -2 -361 -25 -73 -56 -105 -131 -139 -99 -44 -138 -43 -446 10 -13 2 -27 6 -32 10 -6 3 -18 2 -28 -3 -62 -32 -67 -33 -138 -12 -115 33 -127 30 -255 -56 -103 -69 -117 -75 -149 -69 -20 4 -139 63 -266 133 -221 122 -233 131 -325 222 -52 53 -110 108 -127 123 -22 18 -33 36 -33 55 -1 41 -32 100 -89 169 l-52 62 33 5 c188 31 272 51 578 141 235 69 306 77 368 43 59 -32 346 -309 379 -366 16 -27 37 -89 49 -147 l22 -100 1 68 c1 82 -20 160 -57 215 -15 22 -100 110 -188 195 -186 178 -211 193 -323 185 l-70 -5 -32 46 c-18 25 -60 73 -94 105 l-60 59 95 -6 c122 -8 190 -40 364 -174 137 -106 205 -153 219 -153 20 0 -2 31 -44 62 -26 18 -103 76 -172 128 -135 102 -227 154 -292 164 -22 3 -170 13 -330 23 -593 34 -1853 14 -2020 -32 -66 -19 -145 -67 -283 -173 -62 -48 -137 -102 -167 -121 -30 -19 -55 -40 -55 -46 0 -24 67 6 132 58 132 106 260 197 324 228 60 30 77 33 173 37 58 2 148 7 199 11 50 3 92 4 92 2 0 -2 -12 -12 -26 -24 -37 -29 -89 -114 -113 -183 -15 -46 -24 -60 -42 -62 -29 -5 -199 39 -199 51 0 18 71 106 122 152 27 25 46 45 40 45 -13 0 -135 -130 -157 -167 -17 -29 -18 -30 -95 -25 -112 6 -136 -8 -338 -203 -192 -186 -212 -217 -211 -317 l0 -63 19 72 c10 40 30 89 44 110 45 65 352 350 392 363 58 19 133 7 359 -58 261 -75 385 -107 499 -127 49 -8 91 -17 94 -20 2 -2 -18 -30 -46 -62 -58 -68 -79 -106 -88 -161 -5 -32 -17 -49 -68 -93 -33 -29 -85 -79 -114 -111 -42 -45 -88 -77 -215 -150 -275 -156 -347 -191 -380 -184 -16 3 -72 36 -125 72 -115 80 -141 86 -254 53 -59 -16 -83 -20 -86 -11 -2 7 -11 12 -21 12 -9 0 -27 7 -39 16 -23 16 -47 11 -36 -8 5 -7 2 -9 -8 -6 -14 6 -62 -4 -183 -37 -115 -32 -283 13 -370 100 -24 25 -33 45 -43 103 -6 40 -12 103 -12 141 0 80 26 227 45 257 7 11 38 29 69 39 48 16 75 39 62 52 -2 2 -29 -5 -61 -16 l-57 -20 7 27 c13 54 86 189 138 254 71 89 181 186 298 263 52 35 101 70 108 79 7 8 34 22 59 31 74 25 183 104 214 155 15 25 51 123 80 217 42 136 57 173 70 173 10 0 41 15 70 34 137 87 362 194 533 253 180 62 529 133 655 133 71 0 70 -4 69 318 0 158 -4 310 -7 337 l-7 50 -55 2 c-30 0 -107 -5 -170 -12z m190 -339 l0 -303 -107 -12 c-371 -42 -735 -161 -1048 -341 -66 -38 -121 -65 -123 -60 -2 4 11 129 27 277 17 147 33 303 37 345 4 51 11 79 20 82 8 3 14 12 14 20 0 27 314 144 535 200 188 47 467 91 598 95 l47 1 0 -304z m525 289 c310 -36 653 -124 907 -232 106 -46 103 -38 138 -359 16 -154 34 -310 39 -349 5 -38 7 -71 6 -73 -2 -2 -34 15 -72 38 -99 61 -352 183 -468 225 -184 69 -454 129 -677 151 l-68 7 0 303 0 304 33 0 c17 0 91 -7 162 -15z m-1749 -334 c-3 -14 -8 -57 -11 -96 -9 -99 -54 -514 -60 -551 -4 -20 -13 -34 -25 -37 -11 -3 -22 -17 -25 -33 -18 -88 -119 -377 -140 -402 -14 -16 -55 -47 -92 -69 -326 -193 -381 -232 -499 -355 -134 -140 -194 -251 -252 -468 -21 -79 -25 -118 -26 -235 0 -130 1 -144 26 -196 34 -73 86 -124 167 -163 60 -28 74 -31 156 -30 50 1 132 11 184 23 65 14 99 18 111 11 10 -6 28 -10 39 -10 12 0 21 -6 20 -12 0 -7 -33 -211 -72 -452 l-72 -440 -29 -7 c-16 -5 -38 -16 -50 -27 -11 -10 -57 -26 -101 -36 -201 -44 -325 -163 -325 -310 0 -82 60 -221 178 -415 35 -58 64 -108 65 -112 3 -11 -475 -381 -482 -372 -270 399 -452 850 -530 1311 -66 386 -60 812 15 1192 163 823 634 1548 1328 2044 170 122 466 289 493 279 9 -4 12 -15 9 -32z m3061 -102 c568 -333 1041 -860 1318 -1467 379 -830 393 -1790 39 -2637 -75 -179 -244 -487 -320 -582 l-21 -26 -235 193 -236 193 55 86 c30 47 84 145 120 218 61 122 67 138 71 210 4 66 1 86 -18 126 -27 58 -94 126 -153 155 -42 21 -185 62 -218 62 -8 0 -26 11 -39 25 -13 14 -34 25 -46 25 -18 0 -24 7 -29 33 -3 17 -37 221 -74 452 l-67 420 26 6 c15 3 32 9 37 12 6 4 55 -3 110 -14 137 -30 252 -30 324 -1 76 30 142 90 176 160 27 55 28 63 28 207 0 125 -4 165 -23 238 -54 203 -126 337 -252 467 -109 113 -227 198 -435 315 -103 58 -151 95 -172 132 -22 41 -94 255 -115 343 -9 39 -19 58 -34 64 -19 9 -23 25 -37 145 -35 295 -59 551 -53 566 5 13 20 8 95 -29 49 -25 129 -69 178 -97z m-1239 -1339 c226 -7 310 -14 330 -24 41 -21 78 -65 117 -137 40 -74 47 -73 9 3 -14 28 -45 72 -69 97 l-44 47 67 -3 c118 -6 128 -10 195 -72 67 -63 132 -147 120 -154 -19 -11 -166 -47 -192 -47 -23 0 -30 6 -39 33 l-11 32 5 -34 6 -34 -43 6 c-208 29 -1359 34 -1678 8 -69 -6 -126 -9 -127 -8 -1 1 7 29 18 62 26 77 82 161 129 192 36 24 44 25 291 32 376 12 580 12 916 1z m27 -280 c340 -13 467 -22 458 -30 -13 -12 -257 -78 -371 -101 -116 -23 -189 -22 -282 6 -154 45 -390 42 -545 -6 -57 -17 -85 -20 -150 -16 -78 5 -392 79 -465 109 -34 15 -31 15 100 23 414 24 882 30 1255 15z m-350 -130 c50 -6 125 -20 168 -32 76 -21 80 -23 140 -95 58 -68 95 -136 96 -175 1 -13 -13 -9 -66 23 -38 22 -109 52 -158 68 -238 77 -468 61 -685 -46 -52 -26 -98 -49 -102 -51 -15 -7 -8 42 12 82 11 23 46 71 79 107 55 60 66 67 133 87 124 37 246 47 383 32z m-1877 -1712 c-13 -59 -56 -135 -95 -167 -18 -15 -79 -54 -135 -86 -86 -50 -111 -60 -150 -60 -38 0 -52 5 -71 25 -27 28 -80 147 -72 160 9 14 106 47 184 64 42 8 82 23 95 35 11 11 35 23 51 26 17 4 35 13 40 20 12 15 45 21 116 24 l47 1 -10 -42z m3684 17 c5 -8 20 -15 33 -15 13 0 37 -11 53 -25 19 -16 60 -31 121 -45 50 -11 111 -30 136 -41 l44 -21 -35 -75 c-19 -42 -34 -77 -34 -79 0 -10 -63 -34 -87 -34 -15 0 -75 26 -133 57 -128 70 -209 145 -233 217 -30 87 -28 90 55 83 49 -4 74 -11 80 -22z" fill="#9b95ab" />
<path d="M1972 5189 c-12 -5 -22 -6 -22 -3 0 3 -25 -23 -56 -58 -88 -100 -227 -287 -290 -393 -33 -53 -71 -113 -86 -132 -15 -19 -25 -39 -23 -43 3 -5 -13 -46 -35 -92 -46 -93 -115 -298 -125 -371 -6 -41 -4 -51 18 -80 33 -43 131 -95 204 -107 118 -21 129 -22 113 -10 -12 9 -7 10 23 8 20 -2 37 -1 37 3 0 3 21 10 48 13 26 4 72 19 102 34 50 24 56 31 67 72 6 25 11 101 11 170 0 104 4 142 25 225 46 177 125 391 193 527 43 86 45 134 7 170 -49 46 -167 83 -211 67z m146 -65 c78 -40 79 -55 8 -203 -61 -129 -134 -334 -173 -486 -20 -78 -26 -129 -28 -235 -3 -192 -5 -196 -68 -210 -243 -52 -300 -49 -424 22 -74 42 -74 43 -68 76 49 264 228 615 461 907 125 156 139 168 191 162 24 -2 69 -17 101 -33z" fill="#ffff22" />
<path d="M5523 5189 c-62 -11 -141 -49 -163 -77 -29 -36 -25 -80 14 -153 50 -93 106 -234 106 -263 0 -14 4 -26 8 -26 5 0 23 -48 41 -107 18 -60 37 -121 43 -138 31 -95 37 -134 32 -220 -3 -49 -4 -106 -3 -125 2 -19 3 -54 3 -77 0 -38 3 -42 36 -51 63 -19 193 -35 285 -36 156 -1 260 48 286 135 10 33 9 52 -11 126 -25 97 -78 238 -121 324 -15 31 -25 59 -22 63 4 3 -3 16 -14 29 -11 12 -33 45 -49 72 -113 200 -356 509 -414 527 -8 2 -34 1 -57 -3z m101 -72 c186 -194 416 -563 500 -802 40 -113 80 -275 70 -285 -18 -15 -125 -50 -189 -60 -70 -11 -313 4 -347 21 -21 11 -29 70 -32 239 -3 137 -22 226 -95 435 -51 143 -70 192 -120 294 -23 47 -41 92 -41 101 0 39 108 99 179 100 28 0 42 -8 75 -43z" fill="#816c24" />
<path d="M4991 4567 c-63 -32 -85 -119 -45 -174 11 -15 37 -36 58 -47 32 -16 44 -17 76 -7 137 41 110 241 -32 241 -18 0 -44 -6 -57 -13z m104 -13 c33 -15 65 -64 65 -99 0 -25 -27 -72 -52 -89 -12 -9 -40 -16 -61 -16 -51 0 -107 52 -107 99 0 46 26 90 63 106 41 18 52 18 92 -1z" fill="#f9ee12" />
<path d="M5016 4466 c-14 -25 -26 -47 -26 -50 0 -3 27 -6 60 -6 33 0 60 2 60 5 0 9 -55 95 -61 95 -4 0 -19 -20 -33 -44z m64 -28 c0 -5 -13 -8 -30 -8 -34 0 -34 0 -18 35 l12 26 18 -23 c10 -13 18 -26 18 -30z" fill="#feabd6" />
<path d="M2462 4550 c-18 -4 -41 -15 -50 -24 -9 -9 -37 -31 -62 -49 -24 -18 -59 -53 -78 -77 -18 -25 -42 -56 -52 -68 -13 -15 -20 -37 -19 -60 l2 -37 6 40 c4 23 15 50 25 60 9 11 31 39 47 62 16 24 48 56 72 72 23 16 51 38 62 47 10 10 46 24 80 30 33 7 47 12 30 12 -16 0 -45 -4 -63 -8z" fill="#8be825" />
<path d="M2580 4541 c14 -3 42 -18 63 -33 20 -16 53 -39 72 -53 19 -14 47 -47 62 -73 15 -26 33 -51 39 -57 6 -5 14 -17 17 -25 4 -12 6 -12 6 2 1 9 -4 20 -9 23 -6 4 -25 30 -44 59 -18 29 -46 62 -62 74 -89 69 -127 92 -147 91 -20 -1 -20 -2 3 -8z" fill="#1ba848" />
<path d="M2443 4523 c-7 -2 -13 -10 -13 -17 0 -7 -15 -19 -33 -28 -51 -24 -92 -63 -118 -112 -13 -26 -29 -46 -35 -46 -18 0 -24 -25 -24 -95 0 -54 4 -68 23 -87 13 -13 35 -42 50 -66 27 -42 99 -102 122 -102 7 0 15 -8 17 -18 10 -36 155 -38 181 -3 7 9 33 29 59 44 42 25 108 101 108 125 0 5 10 16 23 25 19 13 22 23 22 85 0 64 -2 72 -28 96 -21 20 -27 22 -25 9 2 -14 -7 -17 -57 -20 -104 -6 -105 -5 -105 87 0 53 4 80 11 80 22 0 79 -41 114 -83 19 -22 35 -37 35 -34 0 15 -85 99 -114 114 -17 9 -37 24 -44 34 -11 16 -26 19 -85 18 -40 0 -78 -3 -84 -6z m132 -9 c18 -5 20 -12 17 -88 -6 -124 -3 -128 116 -125 l97 2 0 -73 0 -73 -97 2 c-119 3 -122 -1 -116 -125 3 -94 3 -94 -67 -94 -74 0 -75 1 -75 105 0 69 -4 96 -15 105 -10 8 -43 11 -104 9 l-90 -4 -6 45 c-3 25 -2 58 3 74 l8 29 85 -2 c123 -3 119 -7 119 109 0 85 2 99 18 103 25 7 84 8 107 1z m-135 -109 c0 -64 -3 -76 -20 -85 -24 -13 -138 -11 -146 2 -11 18 49 100 94 129 68 43 72 41 72 -46z m-2 -347 c3 -71 1 -78 -16 -78 -30 0 -99 55 -126 103 -14 24 -26 47 -26 51 0 4 37 6 83 4 l82 -3 3 -77z m335 62 c-8 -32 -82 -109 -124 -131 l-39 -19 0 85 0 85 84 0 c79 0 84 -1 79 -20z" fill="#59b509" />
<path d="M2493 4478 c-13 -6 -23 -15 -23 -19 0 -4 13 -1 29 9 28 15 31 15 49 -1 10 -9 23 -17 28 -17 5 0 -2 9 -16 20 -28 22 -36 23 -67 8z" fill="#86f2c0" />
<path d="M2276 4260 c-15 -27 -16 -32 -1 -60 21 -41 35 -29 35 30 0 59 -11 69 -34 30z m22 -52 l-3 -23 -13 23 c-10 18 -10 26 0 45 l13 22 3 -22 c2 -13 2 -33 0 -45z" fill="#98fcd7" />
<path d="M2740 4233 c0 -67 9 -79 28 -38 16 36 15 49 -8 76 l-19 24 -1 -62z m22 -25 c-9 -20 -11 -18 -11 22 0 40 2 42 11 23 8 -17 8 -29 0 -45z" fill="#730dfb" />
<path d="M2470 4001 c0 -5 13 -14 30 -21 25 -10 34 -10 55 4 14 9 25 19 25 21 0 3 -25 5 -55 5 -30 0 -55 -4 -55 -9z m74 -13 c-15 -7 -28 -7 -40 1 -16 9 -12 10 21 10 35 0 37 -2 19 -11z" fill="#237c76" />
<path d="M3655 4399 c-144 -21 -309 -93 -417 -183 -400 -332 -424 -919 -53 -1281 253 -246 639 -309 960 -155 44 21 94 48 111 60 l32 21 -15 -43 c-8 -24 -21 -50 -28 -58 -7 -8 -18 -33 -24 -55 -14 -53 -54 -826 -46 -887 l7 -48 -399 2 -398 3 -1 50 c-8 282 -43 865 -55 902 -12 38 -262 256 -326 285 -50 22 -161 26 -410 14 -141 -7 -163 -10 -163 -25 0 -14 13 -16 100 -13 55 2 100 0 100 -5 0 -4 -25 -52 -55 -106 -30 -53 -64 -124 -75 -157 -88 -262 129 -538 407 -517 102 8 171 43 305 156 l106 89 6 -51 c4 -43 19 -331 29 -597 l2 -55 425 0 425 0 -1 50 c-2 75 26 665 33 705 l6 35 21 -62 c17 -50 35 -77 90 -133 68 -70 92 -88 124 -95 9 -2 44 -11 77 -20 89 -25 114 -29 138 -18 23 11 94 31 140 40 29 6 175 139 194 178 6 11 21 63 33 116 l23 96 -22 79 c-12 43 -23 87 -25 96 -8 32 -25 53 -88 114 l-63 61 -28 -53 c-15 -30 -25 -54 -22 -54 2 0 14 18 25 40 24 47 36 45 90 -16 l32 -37 -36 -19 c-52 -27 -44 -32 10 -6 39 19 46 20 54 8 17 -26 11 -38 -30 -61 -22 -12 -38 -24 -36 -26 2 -2 20 6 40 18 l36 21 10 -27 c5 -14 13 -44 16 -65 l6 -39 -48 -4 -49 -3 58 -2 c56 -2 57 -2 57 -32 0 -16 -4 -30 -9 -30 -5 0 -11 -22 -15 -48 -3 -27 -12 -56 -19 -66 -12 -17 -15 -17 -50 4 -20 12 -37 20 -37 17 0 -3 20 -17 45 -32 28 -16 43 -31 39 -38 -21 -36 -25 -37 -73 -11 -25 14 -38 19 -27 12 64 -45 63 -40 19 -86 -22 -23 -44 -42 -50 -42 -5 0 -18 16 -28 35 -11 19 -21 32 -23 30 -2 -2 8 -23 22 -48 l26 -44 -26 -12 c-15 -6 -28 -10 -29 -9 -1 2 -14 23 -28 48 -15 25 -27 41 -27 35 0 -5 9 -23 20 -40 11 -16 20 -33 20 -37 0 -7 -94 -38 -116 -38 -8 0 -14 18 -17 48 -3 46 -3 46 -5 -10 -2 -55 -3 -58 -27 -58 -24 0 -25 3 -27 58 -2 56 -2 56 -5 10 -3 -30 -9 -48 -17 -48 -17 0 -116 30 -116 35 0 2 9 20 21 39 12 20 19 36 16 36 -3 0 -16 -18 -28 -40 -24 -43 -30 -46 -60 -30 -19 11 -19 12 6 54 14 23 25 47 25 52 0 5 -12 -11 -26 -35 l-26 -43 -47 47 c-43 43 -45 48 -27 58 47 30 56 44 12 20 -47 -25 -49 -26 -62 -8 -20 28 -18 33 26 55 22 11 40 23 40 25 0 3 -17 -4 -39 -14 l-39 -20 -16 58 c-9 31 -16 60 -16 64 0 3 21 8 48 10 46 3 46 3 -11 5 -57 2 -58 2 -55 30 3 25 7 27 58 33 l55 6 -47 1 c-27 1 -48 6 -48 10 0 16 31 112 36 112 3 0 24 -9 47 -20 45 -22 29 -6 -22 22 -34 19 -37 26 -18 52 12 16 15 15 60 -9 26 -15 47 -24 47 -21 0 3 -19 15 -41 27 l-42 21 49 49 48 49 22 -35 c33 -55 41 -56 9 -1 -26 47 -27 50 -9 63 26 19 30 17 58 -29 14 -24 26 -39 26 -34 0 5 -9 23 -20 41 l-20 33 47 16 c75 26 81 23 86 -31 3 -47 3 -47 5 10 2 56 2 57 32 57 30 0 30 -1 32 -57 2 -57 2 -57 5 -10 4 52 10 55 75 37 49 -14 54 -24 29 -66 -12 -19 -17 -33 -11 -29 5 3 19 23 31 45 12 22 26 37 30 34 5 -3 67 -7 139 -10 106 -4 130 -2 130 9 0 18 -81 27 -230 27 -68 0 -126 6 -160 16 -58 17 -83 16 -175 -11 -33 -9 -64 -18 -70 -19 -5 -1 -16 -5 -22 -9 -18 -12 -16 8 3 23 27 23 93 144 123 226 42 117 55 203 48 340 -11 236 -94 414 -269 579 -96 91 -184 144 -310 186 -134 45 -260 57 -393 38z m325 -50 c231 -58 435 -226 539 -444 148 -308 87 -682 -149 -924 -115 -118 -241 -190 -406 -231 -117 -30 -310 -25 -419 10 -387 123 -635 496 -586 879 26 202 92 342 230 484 209 217 499 299 791 226z m-1176 -1359 c-56 -12 -105 -33 -161 -71 l-47 -33 28 50 c16 27 31 52 33 57 2 4 46 7 96 6 76 -1 85 -3 51 -9z m149 3 c-7 -2 -19 -2 -25 0 -7 3 -2 5 12 5 14 0 19 -2 13 -5z m78 -46 c75 -37 165 -125 197 -195 23 -49 27 -70 27 -152 0 -83 -4 -103 -27 -153 -35 -75 -117 -160 -187 -194 -50 -25 -67 -28 -161 -28 -93 0 -112 3 -162 27 -225 105 -291 380 -140 585 96 129 309 181 453 110z m281 -342 c6 -64 8 -122 5 -129 -3 -7 -27 -31 -54 -54 l-50 -41 23 47 c47 100 51 241 8 324 -23 43 -17 45 23 6 36 -36 36 -37 45 -153z" fill="#982a60" />
<path d="M3730 4307 c-14 -7 -33 -29 -43 -50 -45 -92 50 -180 143 -132 37 19 50 43 50 90 0 47 -13 71 -50 90 -35 18 -67 19 -100 2z m114 -38 c32 -37 33 -68 5 -103 -31 -39 -63 -49 -104 -32 -91 38 -65 166 34 166 32 0 44 -6 65 -31z" fill="#f915dd" />
<path d="M3748 4256 c-25 -19 -23 -68 3 -84 17 -11 27 -11 50 -2 24 10 29 19 29 45 0 24 -6 34 -25 43 -32 15 -36 15 -57 -2z m53 -6 c28 -16 25 -58 -6 -72 -19 -8 -28 -8 -40 2 -18 15 -20 51 -3 68 15 15 24 15 49 2z" fill="#d18902" />
<path d="M3641 4034 c-213 -57 -363 -256 -363 -484 0 -434 516 -661 837 -368 110 100 160 219 159 373 -2 153 -47 259 -158 363 -122 115 -309 161 -475 116z m293 -24 c301 -103 422 -464 245 -729 -51 -77 -105 -123 -194 -166 -88 -43 -182 -59 -269 -45 -128 20 -203 59 -287 147 -185 193 -184 485 1 672 133 134 329 182 504 121z" fill="#cf720e" />
<path d="M3720 3551 l0 -159 31 -11 c18 -6 34 -11 35 -11 2 0 4 66 4 146 0 112 3 145 13 142 7 -3 13 -29 15 -71 3 -67 3 -67 33 -67 23 0 32 6 40 27 14 37 4 85 -24 110 -21 19 -106 53 -134 53 -10 0 -13 -34 -13 -159z" fill="#73f242" />
<path d="M3631 3495 c-35 -13 -68 -28 -74 -34 -20 -20 17 -42 82 -48 58 -6 61 -5 61 17 0 16 -4 21 -16 16 -9 -3 -27 -9 -41 -12 -39 -10 -24 17 18 31 23 8 35 19 37 33 2 12 2 22 0 21 -2 0 -32 -11 -67 -24z" fill="#9350ed" />
<path d="M3818 3493 c-18 -4 -26 -43 -10 -43 5 0 30 7 56 16 31 11 51 13 57 7 7 -7 -12 -18 -55 -34 -49 -17 -66 -28 -66 -41 0 -23 1 -23 90 9 83 29 100 39 100 58 0 26 -111 44 -172 28z" fill="#23c3f8" />
<path d="M3164 3981 c-32 -14 -64 -60 -64 -93 0 -95 102 -142 172 -79 65 58 33 165 -53 176 -18 3 -44 1 -55 -4z m101 -36 c33 -32 33 -84 2 -120 -50 -59 -151 -19 -151 59 0 78 94 116 149 61z" fill="#541ec6" />
<path d="M3172 3924 c-34 -23 -30 -68 7 -84 22 -9 34 -9 50 0 29 15 27 22 -3 9 -32 -15 -66 4 -66 37 0 36 43 54 70 29 11 -10 20 -15 20 -10 0 10 -32 34 -45 35 -6 0 -21 -7 -33 -16z" fill="#9768c9" />
<path d="M4314 3980 c-36 -14 -64 -59 -64 -102 0 -87 101 -130 169 -72 59 50 46 140 -24 170 -39 16 -51 16 -81 4z m100 -36 c37 -37 35 -86 -3 -125 -16 -16 -39 -29 -51 -29 -35 0 -76 27 -89 58 -37 88 75 163 143 96z" fill="#9ae144" />
<path d="M4323 3923 c-55 -38 -1 -122 54 -86 33 22 32 76 -2 91 -30 14 -25 15 -52 -5z m48 -3 c26 -15 26 -66 -1 -75 -11 -3 -29 -3 -40 0 -25 8 -27 53 -2 71 21 16 19 16 43 4z" fill="#1966d4" />
<path d="M3173 3323 c-37 -7 -73 -59 -73 -105 0 -30 7 -46 29 -69 80 -80 212 9 168 113 -13 31 -68 71 -94 67 -4 -1 -18 -4 -30 -6z m88 -42 c40 -40 39 -82 -1 -123 -27 -26 -36 -30 -67 -25 -52 9 -78 38 -78 88 0 81 88 117 146 60z" fill="#489e9a" />
<path d="M3173 3263 c-55 -38 -1 -122 54 -86 31 20 31 66 1 87 -27 19 -27 19 -55 -1z m48 -3 c24 -13 25 -58 2 -75 -43 -32 -88 39 -45 71 21 16 19 16 43 4z" fill="#54ce14" />
<path d="M4279 3291 c-58 -58 -29 -159 51 -176 35 -8 96 19 112 48 6 12 11 39 11 61 0 87 -111 130 -174 67z m139 -17 c12 -14 22 -38 22 -55 0 -42 -48 -89 -90 -89 -37 0 -90 47 -90 79 0 88 101 130 158 65z" fill="#e639a1" />
<path d="M4318 3259 c-27 -15 -23 -65 6 -84 19 -13 28 -14 50 -4 20 10 26 19 26 45 0 46 -41 68 -82 43z m56 -5 c24 -9 21 -61 -4 -74 -30 -16 -60 4 -60 40 0 35 26 49 64 34z" fill="#c2a312" />
<path d="M3704 2956 c-21 -21 -34 -44 -34 -59 0 -104 115 -152 183 -77 62 69 12 170 -84 170 -22 0 -41 -10 -65 -34z m120 3 c39 -31 49 -63 32 -104 -38 -91 -166 -65 -166 34 0 32 6 44 31 65 37 32 68 33 103 5z" fill="#2a8aa8" />
<path d="M3742 2924 c-30 -21 -26 -60 9 -81 24 -14 28 -14 52 2 32 20 36 61 10 81 -24 18 -44 17 -71 -2z m66 -6 c18 -18 14 -52 -8 -66 -28 -17 -70 3 -70 34 0 36 52 58 78 32z" fill="#47da7c" />
<path d="M2823 2903 c9 -2 23 -2 30 0 6 3 -1 5 -18 5 -16 0 -22 -2 -12 -5z" fill="#765f56" />
<path d="M2913 2903 c9 -2 23 -2 30 0 6 3 -1 5 -18 5 -16 0 -22 -2 -12 -5z" fill="#f0e4e0" />
<path d="M2735 2879 c-77 -38 -166 -154 -164 -213 0 -12 6 -2 13 21 28 89 81 147 171 189 28 13 43 24 35 24 -8 -1 -33 -10 -55 -21z" fill="#ad3c33" />
<path d="M3031 2862 c59 -38 114 -104 133 -160 31 -89 56 -82 -288 -82 -234 0 -305 3 -309 13 -3 7 -6 5 -6 -5 -1 -17 20 -18 314 -18 l315 0 0 24 c0 36 -26 101 -59 150 -28 41 -111 106 -135 106 -5 0 10 -13 35 -28z" fill="#473865" />
<path d="M2860 2765 c0 -8 -7 -15 -15 -15 -8 0 -15 -7 -15 -15 0 -8 7 -15 15 -15 8 0 15 -7 15 -15 0 -8 7 -15 15 -15 8 0 15 7 15 15 0 8 7 15 15 15 8 0 15 7 15 15 0 8 -7 15 -15 15 -8 0 -15 7 -15 15 0 8 -7 15 -15 15 -8 0 -15 -7 -15 -15z" fill="#892763" />
<path d="M2875 2560 l-311 -5 7 -25 c7 -24 7 -24 8 -2 l1 22 299 0 c230 0 300 -3 304 -12 3 -7 6 -3 6 10 1 12 0 21 -1 20 -2 -2 -143 -5 -313 -8z" fill="#bc5f0e" />
<path d="M3156 2473 c-39 -95 -136 -163 -258 -182 l-63 -10 61 4 c73 5 135 31 189 78 40 34 100 129 93 147 -2 5 -12 -11 -22 -37z" fill="#9f3a0d" />
<path d="M2580 2497 c-1 -20 42 -86 82 -124 45 -43 118 -83 153 -82 11 0 1 6 -22 13 -82 26 -152 85 -191 161 -12 22 -21 36 -22 32z" fill="#143bb8" />
<path d="M2830 2475 c0 -11 12 -15 45 -15 33 0 45 4 45 15 0 11 -12 15 -45 15 -33 0 -45 -4 -45 -15z" fill="#1e2120" />
<path d="M4765 4336 c-45 -20 -67 -50 -72 -99 -9 -81 42 -137 126 -137 28 0 48 8 70 25 71 60 59 165 -23 204 -49 24 -60 25 -101 7z m121 -40 c56 -56 44 -135 -26 -171 -37 -19 -54 -19 -95 1 -105 49 -64 204 54 204 24 0 42 -9 67 -34z" fill="#988cbc" />
<path d="M4752 4223 l3 -58 58 -3 57 -3 0 61 0 60 -60 0 -61 0 3 -57z m98 -3 l0 -40 -40 0 -40 0 0 40 0 40 40 0 40 0 0 -40z" fill="#d14950" />
<path d="M5253 4343 c-31 -6 -81 -55 -89 -87 -19 -76 41 -156 117 -156 155 0 176 217 24 242 -17 3 -40 3 -52 1z m86 -27 c57 -30 69 -116 22 -168 -25 -28 -36 -33 -76 -33 -40 0 -51 5 -76 33 -83 92 19 225 130 168z" fill="#46897f" />
<path d="M5234 4254 c-35 -53 21 -113 80 -86 58 26 36 112 -29 112 -26 0 -39 -6 -51 -26z m77 6 c26 -14 24 -55 -3 -74 -19 -13 -25 -14 -43 -2 -26 17 -31 49 -10 70 19 19 29 20 56 6z" fill="#9a5cdf" />
<path d="M2842 4230 c-1 -30 -8 -65 -15 -76 -45 -77 -92 -138 -129 -163 -24 -17 -54 -38 -68 -48 -13 -10 -34 -21 -45 -25 -20 -6 -20 -6 1 -7 11 -1 32 8 45 20 13 11 43 33 66 50 24 16 56 48 72 72 17 23 39 53 50 66 24 28 34 72 28 126 -3 34 -4 32 -5 -15z" fill="#1eee68" />
<path d="M1972 4200 c0 -14 2 -19 5 -12 2 6 2 18 0 25 -3 6 -5 1 -5 -13z" fill="#98ecf8" />
<path d="M2201 4188 c-1 -24 5 -45 17 -56 9 -10 34 -43 54 -74 25 -38 54 -66 85 -84 26 -16 54 -36 61 -46 7 -10 23 -17 35 -17 21 2 21 2 -1 6 -13 3 -26 11 -29 19 -3 8 -22 23 -42 34 -41 21 -102 83 -125 128 -9 17 -21 32 -27 34 -7 2 -15 24 -19 49 l-7 44 -2 -37z" fill="#cc0b5d" />
<path d="M4989 4095 c-84 -45 -82 -177 2 -221 82 -42 179 18 179 111 0 93 -100 154 -181 110z m133 -34 c28 -25 33 -36 33 -76 0 -40 -5 -51 -33 -76 -71 -64 -182 -17 -182 76 0 94 110 140 182 76z" fill="#79a12f" />
<path d="M4996 4032 c-3 -5 3 -17 14 -27 20 -18 20 -18 -1 -41 -11 -12 -16 -25 -11 -28 5 -3 17 3 27 14 18 20 18 20 42 -2 27 -25 44 -17 20 10 -10 10 -17 22 -17 27 0 5 7 17 17 27 24 27 7 35 -20 10 l-23 -22 -21 21 c-11 12 -23 17 -27 11z" fill="#ee907e" />
<path d="M2498 3903 c12 -2 32 -2 45 0 12 2 2 4 -23 4 -25 0 -35 -2 -22 -4z" fill="#ecc66e" />
<path d="M2617 3624 c-65 -40 -72 -55 -71 -156 0 -95 14 -108 114 -108 50 0 81 4 87 13 5 6 9 68 8 136 -1 108 -4 125 -20 137 -29 22 -56 17 -118 -22z m118 -119 l0 -130 -63 -3 c-46 -2 -71 2 -88 13 -22 14 -24 22 -24 93 0 42 4 83 8 90 19 30 98 71 132 69 l35 -2 0 -130z" fill="#1c5ff4" />
<path d="M2590 3495 c0 -21 5 -25 28 -24 16 1 20 3 10 6 -10 2 -18 13 -18 24 0 10 -4 19 -10 19 -5 0 -10 -11 -10 -25z" fill="#574a09" />
<path d="M2654 3508 c-5 -7 -2 -9 9 -5 9 3 18 1 20 -6 2 -7 8 -9 12 -5 10 9 -3 28 -20 28 -8 0 -17 -5 -21 -12z" fill="#9ae899" />
<path d="M2655 3480 c-4 -6 6 -10 22 -10 22 0 25 2 13 10 -19 12 -27 12 -35 0z" fill="#0a9a4a" />
<path d="M4815 3644 c-13 -13 -15 -38 -13 -147 l3 -132 82 -3 c111 -4 123 7 123 116 0 92 -9 108 -84 151 -60 35 -87 38 -111 15z m123 -39 l52 -36 0 -84 c0 -107 -7 -115 -100 -115 -45 0 -69 4 -72 13 -7 21 -3 232 5 245 14 22 61 13 115 -23z" fill="#67434c" />
<path d="M4850 3495 c0 -14 5 -25 10 -25 6 0 10 5 10 11 0 8 5 8 15 -1 13 -11 15 -8 15 14 0 21 -5 26 -25 26 -20 0 -25 -5 -25 -25z" fill="#b55928" />
<path d="M4925 3510 c-3 -6 1 -7 9 -4 9 3 16 1 16 -6 0 -6 5 -8 10 -5 6 4 8 11 5 16 -8 12 -32 12 -40 -1z" fill="#63eb81" />
<path d="M4925 3480 c-4 -6 6 -10 22 -10 22 0 25 2 13 10 -19 12 -27 12 -35 0z" fill="#2ccd7d" />
<path d="M2083 3089 c-8 -8 -13 -38 -13 -70 0 -54 2 -59 38 -89 20 -17 48 -33 61 -37 21 -5 104 10 208 39 l36 10 -6 65 c-2 36 -10 70 -16 76 -18 18 -292 22 -308 6z m294 -23 c6 -6 15 -32 18 -58 8 -55 6 -57 -103 -83 -97 -23 -115 -22 -162 9 -39 26 -40 28 -40 84 0 32 3 62 7 66 11 11 267 -5 280 -18z" fill="#eddb1d" />
<path d="M2180 3015 c0 -21 5 -25 28 -24 16 1 20 3 10 6 -10 2 -18 13 -18 24 0 10 -4 19 -10 19 -5 0 -10 -11 -10 -25z" fill="#f12aad" />
<path d="M2258 3032 c19 -13 17 -25 -5 -34 -14 -6 -13 -7 7 -5 31 3 35 40 5 45 -15 2 -16 1 -7 -6z" fill="#61caa8" />
<path d="M5180 3087 c-16 -8 -26 -23 -28 -40 -2 -15 -8 -27 -13 -27 -13 0 -1 -61 15 -77 6 -6 57 -22 114 -34 l103 -23 44 23 c63 33 74 55 66 126 l-6 60 -135 3 c-94 1 -143 -2 -160 -11z m278 -9 c7 -7 12 -33 12 -59 0 -41 -4 -51 -32 -74 -52 -44 -66 -45 -171 -20 -53 13 -101 26 -106 30 -10 6 -4 63 10 102 8 20 16 23 101 26 51 1 111 4 134 5 22 1 45 -3 52 -10z" fill="#b941ae" />
<path d="M5270 3014 c0 -22 2 -25 15 -14 10 9 15 9 15 1 0 -6 5 -11 11 -11 21 0 4 45 -18 48 -19 3 -23 -1 -23 -24z" fill="#01fa49" />
<path d="M5340 3030 c0 -6 4 -9 9 -6 5 3 11 -1 14 -8 4 -9 -1 -17 -11 -19 -12 -3 -10 -5 6 -6 19 -1 23 3 20 21 -3 23 -38 39 -38 18z" fill="#0d02fa" />
<path d="M4595 2901 c-58 -16 -84 -30 -126 -68 -116 -105 -120 -294 -8 -400 83 -78 212 -98 313 -49 100 49 150 131 150 246 0 80 -17 126 -69 188 -52 62 -183 104 -260 83z m146 -26 c128 -46 197 -184 159 -320 -15 -55 -78 -128 -132 -156 -137 -70 -319 6 -362 152 -20 65 -20 92 -1 155 41 139 197 218 336 169z" fill="#78e22e" />
<path d="M4700 2655 c0 -11 -11 -15 -40 -15 -22 0 -40 5 -40 10 0 6 -8 5 -20 -2 -17 -11 -18 -14 -5 -27 12 -12 18 -12 27 -3 7 7 29 12 50 12 31 0 38 4 38 20 0 11 -2 20 -5 20 -3 0 -5 -7 -5 -15z" fill="#b4b5ce" />
<path d="M3634 2591 c-30 -14 -44 -28 -53 -51 -14 -43 -15 -590 0 -642 14 -53 52 -71 163 -76 112 -6 188 10 216 45 19 25 20 40 20 348 0 310 -1 323 -20 348 -28 35 -76 47 -190 47 -71 0 -105 -5 -136 -19z m287 -17 c18 -11 36 -31 40 -44 9 -32 9 -597 0 -630 -11 -41 -71 -64 -171 -64 -104 -1 -150 8 -178 35 -22 20 -22 24 -22 344 0 365 -4 345 78 372 56 19 212 11 253 -13z" fill="#5ad1b6" />
<path d="M3654 2526 c-15 -11 -19 -27 -19 -74 0 -88 6 -92 140 -92 135 0 145 6 145 93 0 78 -15 87 -145 87 -72 0 -107 -4 -121 -14z m241 -76 l0 -65 -120 0 -120 0 -3 44 c-7 93 -8 92 126 89 l117 -3 0 -65z" fill="#777d77" />
<path d="M3742 2461 c-11 -6 -10 -10 5 -16 34 -15 58 -10 60 10 2 17 1 17 -3 2 -6 -18 -6 -18 -21 0 -8 10 -12 13 -9 6 4 -6 2 -14 -3 -17 -5 -4 -11 0 -13 9 -2 9 -8 12 -16 6z" fill="#445ab6" />
<path d="M3822 2454 c2 -10 12 -20 23 -22 15 -2 16 -1 7 6 -8 5 -13 13 -12 18 1 5 -4 10 -10 12 -7 3 -10 -3 -8 -14z" fill="#5d650c" />
<path d="M3646 2298 c-9 -12 -16 -41 -16 -63 0 -22 7 -51 16 -63 14 -21 22 -22 134 -22 136 0 140 2 140 85 0 83 -4 85 -140 85 -112 0 -120 -1 -134 -22z m238 6 c12 -5 16 -21 16 -69 0 -48 -4 -64 -16 -69 -30 -11 -209 -7 -222 6 -16 16 -16 110 0 126 13 13 192 17 222 6z" fill="#9001ef" />
<path d="M3790 2246 c0 -21 5 -26 23 -25 18 1 18 2 4 6 -11 3 -16 11 -13 19 3 7 1 16 -4 19 -6 4 -10 -5 -10 -19z" fill="#db5750" />
<path d="M3649 2094 c-21 -26 -25 -149 -5 -179 16 -24 20 -25 131 -25 143 0 145 2 145 110 0 108 -2 110 -144 110 -93 0 -116 -3 -127 -16z m239 -6 c7 -7 12 -42 12 -88 0 -46 -5 -81 -12 -88 -15 -15 -191 -16 -219 -2 -16 9 -19 22 -19 90 0 65 3 81 18 89 25 15 205 14 220 -1z" fill="#5a6940" />
<path d="M3760 2006 c0 -68 19 -75 21 -8 1 26 4 37 6 24 3 -13 10 -21 16 -19 27 9 15 40 -20 51 -22 7 -23 5 -23 -48z" fill="#372f80" />
<path d="M3715 1980 c-7 -11 22 -26 32 -16 4 3 0 6 -8 6 -11 0 -11 2 1 10 13 8 13 10 -2 10 -9 0 -20 -5 -23 -10z" fill="#cad584" />
<path d="M3805 1980 c17 -7 17 -9 3 -9 -10 -1 -18 -5 -18 -10 0 -6 12 -6 30 0 35 13 30 29 -8 28 -24 0 -25 -1 -7 -9z" fill="#ae97bb" />
<path d="M1677 1921 c-10 -4 -17 -11 -16 -16 2 -6 -84 -81 -191 -168 -107 -86 -218 -178 -247 -204 -50 -44 -51 -47 -38 -72 7 -14 34 -48 59 -75 25 -27 46 -52 46 -56 0 -7 265 -270 273 -270 2 0 22 -16 43 -36 131 -120 370 -285 539 -371 136 -69 233 -106 350 -133 472 -111 1693 -129 2370 -34 367 51 640 179 1003 471 57 46 109 83 117 83 8 0 15 6 15 13 0 16 251 267 268 267 6 0 12 5 12 10 0 6 0 13 0 18 1 4 13 21 29 37 49 53 93 115 81 115 -6 0 -16 5 -23 10 -112 96 -477 383 -489 387 -10 3 -18 9 -18 14 0 22 -27 4 -73 -48 -95 -109 -282 -289 -377 -364 -108 -86 -214 -159 -229 -159 -6 0 -11 -7 -11 -15 0 -8 -6 -15 -14 -15 -7 0 -47 -16 -88 -35 -166 -76 -388 -118 -515 -95 -178 31 -260 121 -279 308 -5 42 -15 72 -30 94 -13 18 -24 46 -24 63 0 17 -5 36 -12 43 -9 9 -118 12 -429 12 -460 0 -449 1 -449 -61 0 -16 -9 -42 -20 -58 -13 -16 -25 -55 -31 -97 -11 -81 -27 -134 -40 -134 -5 0 -9 -9 -9 -20 0 -28 -51 -82 -107 -113 -132 -71 -375 -52 -617 49 -48 20 -90 43 -93 50 -3 8 -11 14 -19 14 -8 0 -14 5 -14 10 0 6 -8 10 -17 10 -63 0 -457 341 -603 523 -46 57 -52 61 -83 48z m120 -163 c164 -180 381 -363 562 -472 164 -99 366 -156 556 -157 124 0 184 14 257 60 83 53 142 160 155 282 4 39 14 70 29 91 13 18 24 45 24 60 l0 28 394 0 393 0 7 -38 c3 -21 15 -47 26 -57 11 -10 20 -30 20 -45 0 -15 9 -62 20 -106 35 -135 108 -217 235 -259 110 -37 363 -13 531 51 241 90 556 333 802 618 l42 49 72 -60 c40 -32 144 -116 230 -186 87 -70 160 -131 163 -136 13 -23 -317 -358 -485 -492 -275 -220 -529 -358 -765 -417 -296 -75 -993 -115 -1627 -94 -565 20 -888 60 -1096 138 -183 69 -412 208 -627 380 -112 90 -367 338 -443 430 l-42 52 233 190 c127 104 235 189 239 189 4 -1 46 -46 95 -99z" fill="#5d1443" />
</g>
</svg>