<?xml version="1.0" encoding="utf-8"?>
<!-- Generator: Adobe Illustrator 24.0.0, SVG Export Plug-In . SVG Version: 6.00 Build 0)  -->
<svg version="1.1" id="Capa_1" xmlns="http://www.w3.org/2000/svg" xmlns:xlink="http://www.w3.org/1999/xlink" x="0px" y="0px"
	 viewBox="0 0 94 92" style="enable-background:new 0 0 94 92;" xml:space="preserve">
<style type="text/css">
	.st0{fill-rule:evenodd;clip-rule:evenodd;fill:#F6F9FF;}
	.st1{fill-rule:evenodd;clip-rule:evenodd;fill:#EBF1FE;}
	.st2{fill-rule:evenodd;clip-rule:evenodd;fill:#FFFFFF;}
	.st3{fill-rule:evenodd;clip-rule:evenodd;fill:#DD0031;}
</style>
<title>Group 34</title>
<desc>Created with Sketch.</desc>
<g id="Diseño-web">
	<g id="Group-34">
		<g id="Group-14-Copy-3">
			<g id="Group-38">
				<ellipse id="Oval-Copy-2" class="st0" cx="47" cy="46" rx="47" ry="45.8"/>
				<ellipse id="Oval-Copy-2_1_" class="st1" cx="47.5" cy="46.8" rx="36.2" ry="35.4"/>
				<ellipse id="Oval-Copy-2_2_" class="st2" cx="47.5" cy="46.8" rx="25.8" ry="25"/>
			</g>
		</g>
		<g id="Group-47-Copy" transform="translate(36.000000, 31.000000)">
			<path id="Fill-30" class="st3" d="M23.7,9.7c-0.5-2.2-1.7-4.3-3.4-6c-5-5-13.2-5-18.2,0C1.3,4.6,0.6,5.6,0,6.7C2.3,4.4,5.5,3,9,3
				c3.6,0,7,1.6,9.4,4c-0.2,0.6-0.4,0.9-0.7,1.4c1.5,0.9,2.5,1.7,2.8,2c0,0.1,0.1,0.2,0.1,0.4c0.3,1.1,0.4,2.2,0.4,3.4
				c0,0.1,0,0.2,0,0.3v0c0,0.3,0,0.7-0.1,1c0,0-0.5-1.5-0.6-1.6c-1.7-1.2-3.8-1.9-6.1-1.9c-5.9,0-10.8,4.8-10.8,10.8
				c0,0.2,0,0.4,0,0.6c2,2.2,6.8,7.6,7.8,7.6c1.3,0,8.6-8.5,8.6-8.5c0.7-0.7,1.7-2,2.2-2.8c0.7-1,1.2-2.2,1.5-3.3
				c0.3-1.1,0.5-2.2,0.5-3.3C24.1,12,24,10.8,23.7,9.7"/>
			<polygon id="Fill-33" class="st3" points="16.4,8.3 12.5,6.8 13.2,9 			"/>
		</g>
	</g>
</g>
</svg>
